<svg width="28" height="28" viewBox="0 0 28 28" fill="none" xmlns="http://www.w3.org/2000/svg">
<path d="M18.578 20.422L20.875 9.594C21.078 8.641 20.531 8.266 19.906 8.5L6.406 13.703C5.484 14.062 5.5 14.578 6.25 14.812L9.703 15.89L17.719 10.843C18.094 10.593 18.438 10.734 18.157 10.984L11.673 16.843L11.423 20.406C11.782 20.406 11.939 20.25 12.126 20.062L13.813 18.437L17.313 21.015C17.954 21.374 18.407 21.187 18.579 20.421L18.578 20.422ZM28 14C28 21.734 21.734 28 14 28C6.266 28 0 21.734 0 14C0 6.266 6.266 0 14 0C21.734 0 28 6.266 28 14Z" fill="#3C5898"/>
</svg>
